<svg xmlns="http://www.w3.org/2000/svg" width="512" height="512" viewBox="0 0 512 512">
  <defs>
    <linearGradient id="bg" x1="0" y1="0" x2="0" y2="1">
      <stop offset="0" stop-color="#3F82EC"/>
      <stop offset="1" stop-color="#2361C7"/>
    </linearGradient>
    <clipPath id="body"><path d="M462.00 256.00 L461.98 302.75 L461.90 317.69 L461.78 328.53 L461.60 337.36 L461.38 344.92 L461.11 351.60 L460.78 357.63 L460.41 363.14 L459.98 368.23 L459.51 372.98 L458.98 377.42 L458.40 381.60 L457.78 385.56 L457.10 389.31 L456.36 392.88 L455.58 396.28 L454.74 399.53 L453.85 402.64 L452.90 405.62 L451.90 408.48 L450.85 411.23 L449.73 413.87 L448.57 416.40 L447.34 418.84 L446.06 421.19 L444.71 423.45 L443.31 425.62 L441.84 427.72 L440.31 429.73 L438.72 431.67 L437.06 433.54 L435.33 435.33 L433.54 437.06 L431.67 438.72 L429.73 440.31 L427.72 441.84 L425.62 443.31 L423.45 444.71 L421.19 446.06 L418.84 447.34 L416.40 448.57 L413.87 449.73 L411.23 450.85 L408.48 451.90 L405.62 452.90 L402.64 453.85 L399.53 454.74 L396.28 455.58 L392.88 456.36 L389.31 457.10 L385.56 457.78 L381.60 458.40 L377.42 458.98 L372.98 459.51 L368.23 459.98 L363.14 460.41 L357.63 460.78 L351.60 461.11 L344.92 461.38 L337.36 461.60 L328.53 461.78 L317.69 461.90 L302.75 461.98 L256.00 462.00 L209.25 461.98 L194.31 461.90 L183.47 461.78 L174.64 461.60 L167.08 461.38 L160.40 461.11 L154.37 460.78 L148.86 460.41 L143.77 459.98 L139.02 459.51 L134.58 458.98 L130.40 458.40 L126.44 457.78 L122.69 457.10 L119.12 456.36 L115.72 455.58 L112.47 454.74 L109.36 453.85 L106.38 452.90 L103.52 451.90 L100.77 450.85 L98.13 449.73 L95.60 448.57 L93.16 447.34 L90.81 446.06 L88.55 444.71 L86.38 443.31 L84.28 441.84 L82.27 440.31 L80.33 438.72 L78.46 437.06 L76.67 435.33 L74.94 433.54 L73.28 431.67 L71.69 429.73 L70.16 427.72 L68.69 425.62 L67.29 423.45 L65.94 421.19 L64.66 418.84 L63.43 416.40 L62.27 413.87 L61.15 411.23 L60.10 408.48 L59.10 405.62 L58.15 402.64 L57.26 399.53 L56.42 396.28 L55.64 392.88 L54.90 389.31 L54.22 385.56 L53.60 381.60 L53.02 377.42 L52.49 372.98 L52.02 368.23 L51.59 363.14 L51.22 357.63 L50.89 351.60 L50.62 344.92 L50.40 337.36 L50.22 328.53 L50.10 317.69 L50.02 302.75 L50.00 256.00 L50.02 209.25 L50.10 194.31 L50.22 183.47 L50.40 174.64 L50.62 167.08 L50.89 160.40 L51.22 154.37 L51.59 148.86 L52.02 143.77 L52.49 139.02 L53.02 134.58 L53.60 130.40 L54.22 126.44 L54.90 122.69 L55.64 119.12 L56.42 115.72 L57.26 112.47 L58.15 109.36 L59.10 106.38 L60.10 103.52 L61.15 100.77 L62.27 98.13 L63.43 95.60 L64.66 93.16 L65.94 90.81 L67.29 88.55 L68.69 86.38 L70.16 84.28 L71.69 82.27 L73.28 80.33 L74.94 78.46 L76.67 76.67 L78.46 74.94 L80.33 73.28 L82.27 71.69 L84.28 70.16 L86.38 68.69 L88.55 67.29 L90.81 65.94 L93.16 64.66 L95.60 63.43 L98.13 62.27 L100.77 61.15 L103.52 60.10 L106.38 59.10 L109.36 58.15 L112.47 57.26 L115.72 56.42 L119.12 55.64 L122.69 54.90 L126.44 54.22 L130.40 53.60 L134.58 53.02 L139.02 52.49 L143.77 52.02 L148.86 51.59 L154.37 51.22 L160.40 50.89 L167.08 50.62 L174.64 50.40 L183.47 50.22 L194.31 50.10 L209.25 50.02 L256.00 50.00 L302.75 50.02 L317.69 50.10 L328.53 50.22 L337.36 50.40 L344.92 50.62 L351.60 50.89 L357.63 51.22 L363.14 51.59 L368.23 52.02 L372.98 52.49 L377.42 53.02 L381.60 53.60 L385.56 54.22 L389.31 54.90 L392.88 55.64 L396.28 56.42 L399.53 57.26 L402.64 58.15 L405.62 59.10 L408.48 60.10 L411.23 61.15 L413.87 62.27 L416.40 63.43 L418.84 64.66 L421.19 65.94 L423.45 67.29 L425.62 68.69 L427.72 70.16 L429.73 71.69 L431.67 73.28 L433.54 74.94 L435.33 76.67 L437.06 78.46 L438.72 80.33 L440.31 82.27 L441.84 84.28 L443.31 86.38 L444.71 88.55 L446.06 90.81 L447.34 93.16 L448.57 95.60 L449.73 98.13 L450.85 100.77 L451.90 103.52 L452.90 106.38 L453.85 109.36 L454.74 112.47 L455.58 115.72 L456.36 119.12 L457.10 122.69 L457.78 126.44 L458.40 130.40 L458.98 134.58 L459.51 139.02 L459.98 143.77 L460.41 148.86 L460.78 154.37 L461.11 160.40 L461.38 167.08 L461.60 174.64 L461.78 183.47 L461.90 194.31 L461.98 209.25 Z"/></clipPath>
    <filter id="shadow" x="-15%" y="-15%" width="130%" height="130%">
      <feDropShadow dx="0" dy="5" stdDeviation="5" flood-color="#000000" flood-opacity="0.3"/>
    </filter>
  </defs>
  <g filter="url(#shadow)">
    <path d="M462.00 256.00 L461.98 302.75 L461.90 317.69 L461.78 328.53 L461.60 337.36 L461.38 344.92 L461.11 351.60 L460.78 357.63 L460.41 363.14 L459.98 368.23 L459.51 372.98 L458.98 377.42 L458.40 381.60 L457.78 385.56 L457.10 389.31 L456.36 392.88 L455.58 396.28 L454.74 399.53 L453.85 402.64 L452.90 405.62 L451.90 408.48 L450.85 411.23 L449.73 413.87 L448.57 416.40 L447.34 418.84 L446.06 421.19 L444.71 423.45 L443.31 425.62 L441.84 427.72 L440.31 429.73 L438.72 431.67 L437.06 433.54 L435.33 435.33 L433.54 437.06 L431.67 438.72 L429.73 440.31 L427.72 441.84 L425.62 443.31 L423.45 444.71 L421.19 446.06 L418.84 447.34 L416.40 448.57 L413.87 449.73 L411.23 450.85 L408.48 451.90 L405.62 452.90 L402.64 453.85 L399.53 454.74 L396.28 455.58 L392.88 456.36 L389.31 457.10 L385.56 457.78 L381.60 458.40 L377.42 458.98 L372.98 459.51 L368.23 459.98 L363.14 460.41 L357.63 460.78 L351.60 461.11 L344.92 461.38 L337.36 461.60 L328.53 461.78 L317.69 461.90 L302.75 461.98 L256.00 462.00 L209.25 461.98 L194.31 461.90 L183.47 461.78 L174.64 461.60 L167.08 461.38 L160.40 461.11 L154.37 460.78 L148.86 460.41 L143.77 459.98 L139.02 459.51 L134.58 458.98 L130.40 458.40 L126.44 457.78 L122.69 457.10 L119.12 456.36 L115.72 455.58 L112.47 454.74 L109.36 453.85 L106.38 452.90 L103.52 451.90 L100.77 450.85 L98.13 449.73 L95.60 448.57 L93.16 447.34 L90.81 446.06 L88.55 444.71 L86.38 443.31 L84.28 441.84 L82.27 440.31 L80.33 438.72 L78.46 437.06 L76.67 435.33 L74.94 433.54 L73.28 431.67 L71.69 429.73 L70.16 427.72 L68.69 425.62 L67.29 423.45 L65.94 421.19 L64.66 418.84 L63.43 416.40 L62.27 413.87 L61.15 411.23 L60.10 408.48 L59.10 405.62 L58.15 402.64 L57.26 399.53 L56.42 396.28 L55.64 392.88 L54.90 389.31 L54.22 385.56 L53.60 381.60 L53.02 377.42 L52.49 372.98 L52.02 368.23 L51.59 363.14 L51.22 357.63 L50.89 351.60 L50.62 344.92 L50.40 337.36 L50.22 328.53 L50.10 317.69 L50.02 302.75 L50.00 256.00 L50.02 209.25 L50.10 194.31 L50.22 183.47 L50.40 174.64 L50.62 167.08 L50.89 160.40 L51.22 154.37 L51.59 148.86 L52.02 143.77 L52.49 139.02 L53.02 134.58 L53.60 130.40 L54.22 126.44 L54.90 122.69 L55.64 119.12 L56.42 115.72 L57.26 112.47 L58.15 109.36 L59.10 106.38 L60.10 103.52 L61.15 100.77 L62.27 98.13 L63.43 95.60 L64.66 93.16 L65.94 90.81 L67.29 88.55 L68.69 86.38 L70.16 84.28 L71.69 82.27 L73.28 80.33 L74.94 78.46 L76.67 76.67 L78.46 74.94 L80.33 73.28 L82.27 71.69 L84.28 70.16 L86.38 68.69 L88.55 67.29 L90.81 65.94 L93.16 64.66 L95.60 63.43 L98.13 62.27 L100.77 61.15 L103.52 60.10 L106.38 59.10 L109.36 58.15 L112.47 57.26 L115.72 56.42 L119.12 55.64 L122.69 54.90 L126.44 54.22 L130.40 53.60 L134.58 53.02 L139.02 52.49 L143.77 52.02 L148.86 51.59 L154.37 51.22 L160.40 50.89 L167.08 50.62 L174.64 50.40 L183.47 50.22 L194.31 50.10 L209.25 50.02 L256.00 50.00 L302.75 50.02 L317.69 50.10 L328.53 50.22 L337.36 50.40 L344.92 50.62 L351.60 50.89 L357.63 51.22 L363.14 51.59 L368.23 52.02 L372.98 52.49 L377.42 53.02 L381.60 53.60 L385.56 54.22 L389.31 54.90 L392.88 55.64 L396.28 56.42 L399.53 57.26 L402.64 58.15 L405.62 59.10 L408.48 60.10 L411.23 61.15 L413.87 62.27 L416.40 63.43 L418.84 64.66 L421.19 65.94 L423.45 67.29 L425.62 68.69 L427.72 70.16 L429.73 71.69 L431.67 73.28 L433.54 74.94 L435.33 76.67 L437.06 78.46 L438.72 80.33 L440.31 82.27 L441.84 84.28 L443.31 86.38 L444.71 88.55 L446.06 90.81 L447.34 93.16 L448.57 95.60 L449.73 98.13 L450.85 100.77 L451.90 103.52 L452.90 106.38 L453.85 109.36 L454.74 112.47 L455.58 115.72 L456.36 119.12 L457.10 122.69 L457.78 126.44 L458.40 130.40 L458.98 134.58 L459.51 139.02 L459.98 143.77 L460.41 148.86 L460.78 154.37 L461.11 160.40 L461.38 167.08 L461.60 174.64 L461.78 183.47 L461.90 194.31 L461.98 209.25 Z" fill="url(#bg)"/>
    <g clip-path="url(#body)">
      <g transform="translate(50.00 50.00) scale(0.804688)">
      <rect x="-40" y="380" width="592" height="184" fill="#B9D4FB"/>
      <rect x="-40" y="380" width="592" height="16" fill="#8FB6F0"/>
      <path d="M-40 76 Q104 150 162 246" stroke="#8FB6F0" stroke-width="44" stroke-linecap="round" fill="none"/>
      <path d="M162 246 Q256 202 350 246" stroke="#8FB6F0" stroke-width="44" stroke-linecap="round" fill="none"/>
      <rect x="150" y="104" width="212" height="76" rx="38" fill="#FFFFFF"/>
      <rect x="190" y="160" width="132" height="236" fill="#FFFFFF"/>
      <rect x="140" y="346" width="232" height="58" rx="16" fill="#FFFFFF"/>
      <path d="M162 246 Q256 298 350 246" stroke="#8FB6F0" stroke-width="44" stroke-linecap="round" fill="none"/>
      <path d="M350 246 Q396 300 390 368" stroke="#8FB6F0" stroke-width="44" stroke-linecap="round" fill="none"/>
      </g>
    </g>
  </g>
</svg>
