<svg xmlns="http://www.w3.org/2000/svg" width="1024" height="1024" viewBox="0 0 1024 1024">
  <defs>
    <linearGradient id="bg" x1="0" y1="0" x2="0" y2="1">
      <stop offset="0" stop-color="#3F82EC"/>
      <stop offset="1" stop-color="#2361C7"/>
    </linearGradient>
    <clipPath id="body"><path d="M1024.00 512.00 L1023.94 628.21 L1023.75 665.32 L1023.44 692.28 L1023.01 714.20 L1022.46 733.00 L1021.78 749.62 L1020.97 764.60 L1020.04 778.30 L1018.99 790.95 L1017.81 802.74 L1016.50 813.78 L1015.06 824.18 L1013.50 834.01 L1011.81 843.33 L1009.99 852.20 L1008.04 860.66 L1005.96 868.74 L1003.74 876.47 L1001.39 883.88 L998.90 890.99 L996.28 897.81 L993.52 904.36 L990.61 910.67 L987.56 916.73 L984.37 922.56 L981.03 928.18 L977.54 933.59 L973.90 938.79 L970.10 943.80 L966.14 948.62 L962.01 953.26 L957.72 957.72 L953.26 962.01 L948.62 966.14 L943.80 970.10 L938.79 973.90 L933.59 977.54 L928.18 981.03 L922.56 984.37 L916.73 987.56 L910.67 990.61 L904.36 993.52 L897.81 996.28 L890.99 998.90 L883.88 1001.39 L876.47 1003.74 L868.74 1005.96 L860.66 1008.04 L852.20 1009.99 L843.33 1011.81 L834.01 1013.50 L824.18 1015.06 L813.78 1016.50 L802.74 1017.81 L790.95 1018.99 L778.30 1020.04 L764.60 1020.97 L749.62 1021.78 L733.00 1022.46 L714.20 1023.01 L692.28 1023.44 L665.32 1023.75 L628.21 1023.94 L512.00 1024.00 L395.79 1023.94 L358.68 1023.75 L331.72 1023.44 L309.80 1023.01 L291.00 1022.46 L274.38 1021.78 L259.40 1020.97 L245.70 1020.04 L233.05 1018.99 L221.26 1017.81 L210.22 1016.50 L199.82 1015.06 L189.99 1013.50 L180.67 1011.81 L171.80 1009.99 L163.34 1008.04 L155.26 1005.96 L147.53 1003.74 L140.12 1001.39 L133.01 998.90 L126.19 996.28 L119.64 993.52 L113.33 990.61 L107.27 987.56 L101.44 984.37 L95.82 981.03 L90.41 977.54 L85.21 973.90 L80.20 970.10 L75.38 966.14 L70.74 962.01 L66.28 957.72 L61.99 953.26 L57.86 948.62 L53.90 943.80 L50.10 938.79 L46.46 933.59 L42.97 928.18 L39.63 922.56 L36.44 916.73 L33.39 910.67 L30.48 904.36 L27.72 897.81 L25.10 890.99 L22.61 883.88 L20.26 876.47 L18.04 868.74 L15.96 860.66 L14.01 852.20 L12.19 843.33 L10.50 834.01 L8.94 824.18 L7.50 813.78 L6.19 802.74 L5.01 790.95 L3.96 778.30 L3.03 764.60 L2.22 749.62 L1.54 733.00 L0.99 714.20 L0.56 692.28 L0.25 665.32 L0.06 628.21 L0.00 512.00 L0.06 395.79 L0.25 358.68 L0.56 331.72 L0.99 309.80 L1.54 291.00 L2.22 274.38 L3.03 259.40 L3.96 245.70 L5.01 233.05 L6.19 221.26 L7.50 210.22 L8.94 199.82 L10.50 189.99 L12.19 180.67 L14.01 171.80 L15.96 163.34 L18.04 155.26 L20.26 147.53 L22.61 140.12 L25.10 133.01 L27.72 126.19 L30.48 119.64 L33.39 113.33 L36.44 107.27 L39.63 101.44 L42.97 95.82 L46.46 90.41 L50.10 85.21 L53.90 80.20 L57.86 75.38 L61.99 70.74 L66.28 66.28 L70.74 61.99 L75.38 57.86 L80.20 53.90 L85.21 50.10 L90.41 46.46 L95.82 42.97 L101.44 39.63 L107.27 36.44 L113.33 33.39 L119.64 30.48 L126.19 27.72 L133.01 25.10 L140.12 22.61 L147.53 20.26 L155.26 18.04 L163.34 15.96 L171.80 14.01 L180.67 12.19 L189.99 10.50 L199.82 8.94 L210.22 7.50 L221.26 6.19 L233.05 5.01 L245.70 3.96 L259.40 3.03 L274.38 2.22 L291.00 1.54 L309.80 0.99 L331.72 0.56 L358.68 0.25 L395.79 0.06 L512.00 0.00 L628.21 0.06 L665.32 0.25 L692.28 0.56 L714.20 0.99 L733.00 1.54 L749.62 2.22 L764.60 3.03 L778.30 3.96 L790.95 5.01 L802.74 6.19 L813.78 7.50 L824.18 8.94 L834.01 10.50 L843.33 12.19 L852.20 14.01 L860.66 15.96 L868.74 18.04 L876.47 20.26 L883.88 22.61 L890.99 25.10 L897.81 27.72 L904.36 30.48 L910.67 33.39 L916.73 36.44 L922.56 39.63 L928.18 42.97 L933.59 46.46 L938.79 50.10 L943.80 53.90 L948.62 57.86 L953.26 61.99 L957.72 66.28 L962.01 70.74 L966.14 75.38 L970.10 80.20 L973.90 85.21 L977.54 90.41 L981.03 95.82 L984.37 101.44 L987.56 107.27 L990.61 113.33 L993.52 119.64 L996.28 126.19 L998.90 133.01 L1001.39 140.12 L1003.74 147.53 L1005.96 155.26 L1008.04 163.34 L1009.99 171.80 L1011.81 180.67 L1013.50 189.99 L1015.06 199.82 L1016.50 210.22 L1017.81 221.26 L1018.99 233.05 L1020.04 245.70 L1020.97 259.40 L1021.78 274.38 L1022.46 291.00 L1023.01 309.80 L1023.44 331.72 L1023.75 358.68 L1023.94 395.79 Z"/></clipPath>
  </defs>
  <path d="M1024.00 512.00 L1023.94 628.21 L1023.75 665.32 L1023.44 692.28 L1023.01 714.20 L1022.46 733.00 L1021.78 749.62 L1020.97 764.60 L1020.04 778.30 L1018.99 790.95 L1017.81 802.74 L1016.50 813.78 L1015.06 824.18 L1013.50 834.01 L1011.81 843.33 L1009.99 852.20 L1008.04 860.66 L1005.96 868.74 L1003.74 876.47 L1001.39 883.88 L998.90 890.99 L996.28 897.81 L993.52 904.36 L990.61 910.67 L987.56 916.73 L984.37 922.56 L981.03 928.18 L977.54 933.59 L973.90 938.79 L970.10 943.80 L966.14 948.62 L962.01 953.26 L957.72 957.72 L953.26 962.01 L948.62 966.14 L943.80 970.10 L938.79 973.90 L933.59 977.54 L928.18 981.03 L922.56 984.37 L916.73 987.56 L910.67 990.61 L904.36 993.52 L897.81 996.28 L890.99 998.90 L883.88 1001.39 L876.47 1003.74 L868.74 1005.96 L860.66 1008.04 L852.20 1009.99 L843.33 1011.81 L834.01 1013.50 L824.18 1015.06 L813.78 1016.50 L802.74 1017.81 L790.95 1018.99 L778.30 1020.04 L764.60 1020.97 L749.62 1021.78 L733.00 1022.46 L714.20 1023.01 L692.28 1023.44 L665.32 1023.75 L628.21 1023.94 L512.00 1024.00 L395.79 1023.94 L358.68 1023.75 L331.72 1023.44 L309.80 1023.01 L291.00 1022.46 L274.38 1021.78 L259.40 1020.97 L245.70 1020.04 L233.05 1018.99 L221.26 1017.81 L210.22 1016.50 L199.82 1015.06 L189.99 1013.50 L180.67 1011.81 L171.80 1009.99 L163.34 1008.04 L155.26 1005.96 L147.53 1003.74 L140.12 1001.39 L133.01 998.90 L126.19 996.28 L119.64 993.52 L113.33 990.61 L107.27 987.56 L101.44 984.37 L95.82 981.03 L90.41 977.54 L85.21 973.90 L80.20 970.10 L75.38 966.14 L70.74 962.01 L66.28 957.72 L61.99 953.26 L57.86 948.62 L53.90 943.80 L50.10 938.79 L46.46 933.59 L42.97 928.18 L39.63 922.56 L36.44 916.73 L33.39 910.67 L30.48 904.36 L27.72 897.81 L25.10 890.99 L22.61 883.88 L20.26 876.47 L18.04 868.74 L15.96 860.66 L14.01 852.20 L12.19 843.33 L10.50 834.01 L8.94 824.18 L7.50 813.78 L6.19 802.74 L5.01 790.95 L3.96 778.30 L3.03 764.60 L2.22 749.62 L1.54 733.00 L0.99 714.20 L0.56 692.28 L0.25 665.32 L0.06 628.21 L0.00 512.00 L0.06 395.79 L0.25 358.68 L0.56 331.72 L0.99 309.80 L1.54 291.00 L2.22 274.38 L3.03 259.40 L3.96 245.70 L5.01 233.05 L6.19 221.26 L7.50 210.22 L8.94 199.82 L10.50 189.99 L12.19 180.67 L14.01 171.80 L15.96 163.34 L18.04 155.26 L20.26 147.53 L22.61 140.12 L25.10 133.01 L27.72 126.19 L30.48 119.64 L33.39 113.33 L36.44 107.27 L39.63 101.44 L42.97 95.82 L46.46 90.41 L50.10 85.21 L53.90 80.20 L57.86 75.38 L61.99 70.74 L66.28 66.28 L70.74 61.99 L75.38 57.86 L80.20 53.90 L85.21 50.10 L90.41 46.46 L95.82 42.97 L101.44 39.63 L107.27 36.44 L113.33 33.39 L119.64 30.48 L126.19 27.72 L133.01 25.10 L140.12 22.61 L147.53 20.26 L155.26 18.04 L163.34 15.96 L171.80 14.01 L180.67 12.19 L189.99 10.50 L199.82 8.94 L210.22 7.50 L221.26 6.19 L233.05 5.01 L245.70 3.96 L259.40 3.03 L274.38 2.22 L291.00 1.54 L309.80 0.99 L331.72 0.56 L358.68 0.25 L395.79 0.06 L512.00 0.00 L628.21 0.06 L665.32 0.25 L692.28 0.56 L714.20 0.99 L733.00 1.54 L749.62 2.22 L764.60 3.03 L778.30 3.96 L790.95 5.01 L802.74 6.19 L813.78 7.50 L824.18 8.94 L834.01 10.50 L843.33 12.19 L852.20 14.01 L860.66 15.96 L868.74 18.04 L876.47 20.26 L883.88 22.61 L890.99 25.10 L897.81 27.72 L904.36 30.48 L910.67 33.39 L916.73 36.44 L922.56 39.63 L928.18 42.97 L933.59 46.46 L938.79 50.10 L943.80 53.90 L948.62 57.86 L953.26 61.99 L957.72 66.28 L962.01 70.74 L966.14 75.38 L970.10 80.20 L973.90 85.21 L977.54 90.41 L981.03 95.82 L984.37 101.44 L987.56 107.27 L990.61 113.33 L993.52 119.64 L996.28 126.19 L998.90 133.01 L1001.39 140.12 L1003.74 147.53 L1005.96 155.26 L1008.04 163.34 L1009.99 171.80 L1011.81 180.67 L1013.50 189.99 L1015.06 199.82 L1016.50 210.22 L1017.81 221.26 L1018.99 233.05 L1020.04 245.70 L1020.97 259.40 L1021.78 274.38 L1022.46 291.00 L1023.01 309.80 L1023.44 331.72 L1023.75 358.68 L1023.94 395.79 Z" fill="url(#bg)"/>
  <g clip-path="url(#body)">
    <g transform="scale(2.000000)">
    <rect x="-40" y="384" width="592" height="180" fill="#B9D4FB"/>
      <rect x="-40" y="384" width="592" height="12" fill="#8FB6F0"/>
      <path d="M-40 65 Q110 140 176 232" stroke="#8FB6F0" stroke-width="30" stroke-linecap="round" fill="none"/>
      <path d="M176 232 Q256 196 336 232" stroke="#8FB6F0" stroke-width="30" stroke-linecap="round" fill="none"/>
      <path d="M176 266 Q256 230 336 266" stroke="#8FB6F0" stroke-width="30" stroke-linecap="round" fill="none"/>
      <rect x="166" y="120" width="180" height="64" rx="32" fill="#FFFFFF"/>
      <rect x="198" y="166" width="116" height="228" fill="#FFFFFF"/>
      <rect x="154" y="352" width="204" height="52" rx="14" fill="#FFFFFF"/>
      <path d="M176 232 Q256 278 336 232" stroke="#8FB6F0" stroke-width="30" stroke-linecap="round" fill="none"/>
      <path d="M176 266 Q256 312 336 266" stroke="#8FB6F0" stroke-width="30" stroke-linecap="round" fill="none"/>
      <path d="M336 266 Q384 326 378 392" stroke="#8FB6F0" stroke-width="30" stroke-linecap="round" fill="none"/>
    </g>
  </g>
</svg>
